<svg id="visual" viewBox="0 0 900 600" width="900" height="600" xmlns="http://www.w3.org/2000/svg" xmlns:xlink="http://www.w3.org/1999/xlink" version="1.1"><rect x="0" y="0" width="900" height="600" fill="#001220"></rect><path d="M0 426L7.8 432.5C15.7 439 31.3 452 47.2 455.3C63 458.7 79 452.3 94.8 440.8C110.7 429.3 126.3 412.7 142 403.3C157.7 394 173.3 392 189.2 399.2C205 406.3 221 422.7 236.8 433C252.7 443.3 268.3 447.7 284.2 436C300 424.3 316 396.7 331.8 400.7C347.7 404.7 363.3 440.3 379 455C394.7 469.7 410.3 463.3 426.2 460.2C442 457 458 457 473.8 441.8C489.7 426.7 505.3 396.3 521 390.2C536.7 384 552.3 402 568.2 405.7C584 409.3 600 398.7 615.8 393.2C631.7 387.7 647.3 387.3 663.2 381C679 374.7 695 362.3 710.8 364.2C726.7 366 742.3 382 758 400.2C773.7 418.3 789.3 438.7 805.2 449.7C821 460.7 837 462.3 852.8 462.3C868.7 462.3 884.3 460.7 892.2 459.8L900 459L900 601L892.2 601C884.3 601 868.7 601 852.8 601C837 601 821 601 805.2 601C789.3 601 773.7 601 758 601C742.3 601 726.7 601 710.8 601C695 601 679 601 663.2 601C647.3 601 631.7 601 615.8 601C600 601 584 601 568.2 601C552.3 601 536.7 601 521 601C505.3 601 489.7 601 473.8 601C458 601 442 601 426.2 601C410.3 601 394.7 601 379 601C363.3 601 347.7 601 331.8 601C316 601 300 601 284.2 601C268.3 601 252.7 601 236.8 601C221 601 205 601 189.2 601C173.3 601 157.7 601 142 601C126.3 601 110.7 601 94.8 601C79 601 63 601 47.2 601C31.3 601 15.7 601 7.8 601L0 601Z" fill="#fa69f7"></path><path d="M0 506L7.8 505.7C15.7 505.3 31.3 504.7 47.2 499.2C63 493.7 79 483.3 94.8 474.7C110.7 466 126.3 459 142 446.7C157.7 434.3 173.3 416.7 189.2 415C205 413.3 221 427.7 236.8 432.3C252.7 437 268.3 432 284.2 435.8C300 439.7 316 452.3 331.8 449C347.7 445.7 363.3 426.3 379 418C394.7 409.7 410.3 412.3 426.2 424C442 435.7 458 456.3 473.8 455.3C489.7 454.3 505.3 431.7 521 425.8C536.7 420 552.3 431 568.2 438.2C584 445.3 600 448.7 615.8 446.5C631.7 444.3 647.3 436.7 663.2 443.5C679 450.3 695 471.7 710.8 472.5C726.7 473.3 742.3 453.7 758 437.8C773.7 422 789.3 410 805.2 416.7C821 423.3 837 448.7 852.8 451C868.7 453.3 884.3 432.7 892.2 422.3L900 412L900 601L892.2 601C884.3 601 868.7 601 852.8 601C837 601 821 601 805.2 601C789.3 601 773.7 601 758 601C742.3 601 726.7 601 710.8 601C695 601 679 601 663.2 601C647.3 601 631.7 601 615.8 601C600 601 584 601 568.2 601C552.3 601 536.7 601 521 601C505.3 601 489.7 601 473.8 601C458 601 442 601 426.2 601C410.3 601 394.7 601 379 601C363.3 601 347.7 601 331.8 601C316 601 300 601 284.2 601C268.3 601 252.7 601 236.8 601C221 601 205 601 189.2 601C173.3 601 157.7 601 142 601C126.3 601 110.7 601 94.8 601C79 601 63 601 47.2 601C31.3 601 15.7 601 7.8 601L0 601Z" fill="#cc4bd3"></path><path d="M0 493L7.8 500.8C15.7 508.7 31.3 524.3 47.2 529.3C63 534.3 79 528.7 94.8 527.5C110.7 526.3 126.3 529.7 142 529.7C157.7 529.7 173.3 526.3 189.2 512.7C205 499 221 475 236.8 467C252.7 459 268.3 467 284.2 470.8C300 474.7 316 474.3 331.8 472.7C347.7 471 363.3 468 379 468.8C394.7 469.7 410.3 474.3 426.2 481.2C442 488 458 497 473.8 496.5C489.7 496 505.3 486 521 476.8C536.7 467.7 552.3 459.3 568.2 456.2C584 453 600 455 615.8 466.2C631.7 477.3 647.3 497.7 663.2 505.5C679 513.3 695 508.7 710.8 501.3C726.7 494 742.3 484 758 479.8C773.7 475.7 789.3 477.3 805.2 487C821 496.7 837 514.3 852.8 519.2C868.7 524 884.3 516 892.2 512L900 508L900 601L892.2 601C884.3 601 868.7 601 852.8 601C837 601 821 601 805.2 601C789.3 601 773.7 601 758 601C742.3 601 726.7 601 710.8 601C695 601 679 601 663.2 601C647.3 601 631.7 601 615.8 601C600 601 584 601 568.2 601C552.3 601 536.7 601 521 601C505.3 601 489.7 601 473.8 601C458 601 442 601 426.2 601C410.3 601 394.7 601 379 601C363.3 601 347.7 601 331.8 601C316 601 300 601 284.2 601C268.3 601 252.7 601 236.8 601C221 601 205 601 189.2 601C173.3 601 157.7 601 142 601C126.3 601 110.7 601 94.8 601C79 601 63 601 47.2 601C31.3 601 15.7 601 7.8 601L0 601Z" fill="#a02daf"></path><path d="M0 540L7.8 544.8C15.7 549.7 31.3 559.3 47.2 560C63 560.7 79 552.3 94.8 551.8C110.7 551.3 126.3 558.7 142 561.5C157.7 564.3 173.3 562.7 189.2 563.8C205 565 221 569 236.8 565.3C252.7 561.7 268.3 550.3 284.2 541.5C300 532.7 316 526.3 331.8 520.7C347.7 515 363.3 510 379 514.2C394.7 518.3 410.3 531.7 426.2 538.5C442 545.3 458 545.7 473.8 540.2C489.7 534.7 505.3 523.3 521 520.7C536.7 518 552.3 524 568.2 533C584 542 600 554 615.8 551.3C631.7 548.7 647.3 531.3 663.2 524.5C679 517.7 695 521.3 710.8 528.8C726.7 536.3 742.3 547.7 758 554.7C773.7 561.7 789.3 564.3 805.2 557.5C821 550.7 837 534.3 852.8 532.2C868.7 530 884.3 542 892.2 548L900 554L900 601L892.2 601C884.3 601 868.7 601 852.8 601C837 601 821 601 805.2 601C789.3 601 773.7 601 758 601C742.3 601 726.7 601 710.8 601C695 601 679 601 663.2 601C647.3 601 631.7 601 615.8 601C600 601 584 601 568.2 601C552.3 601 536.7 601 521 601C505.3 601 489.7 601 473.8 601C458 601 442 601 426.2 601C410.3 601 394.7 601 379 601C363.3 601 347.7 601 331.8 601C316 601 300 601 284.2 601C268.3 601 252.7 601 236.8 601C221 601 205 601 189.2 601C173.3 601 157.7 601 142 601C126.3 601 110.7 601 94.8 601C79 601 63 601 47.2 601C31.3 601 15.7 601 7.8 601L0 601Z" fill="#76078c"></path></svg>