<svg id="visual" viewBox="0 0 900 200" width="900" height="200" xmlns="http://www.w3.org/2000/svg" xmlns:xlink="http://www.w3.org/1999/xlink" version="1.1"><path d="M0 84L7.8 88.2C15.7 92.3 31.3 100.7 47.2 102.8C63 105 79 101 94.8 93.5C110.7 86 126.3 75 142 68.8C157.7 62.7 173.3 61.3 189.2 66C205 70.7 221 81.3 236.8 88.2C252.7 95 268.3 98 284.2 90.3C300 82.7 316 64.3 331.8 67C347.7 69.7 363.3 93.3 379 103C394.7 112.7 410.3 108.3 426.2 106.2C442 104 458 104 473.8 93.8C489.7 83.7 505.3 63.3 521 59.2C536.7 55 552.3 67 568.2 69.5C584 72 600 65 615.8 61.5C631.7 58 647.3 58 663.2 53.8C679 49.7 695 41.3 710.8 42.5C726.7 43.7 742.3 54.3 758 66.5C773.7 78.7 789.3 92.3 805.2 99.7C821 107 837 108 852.8 108C868.7 108 884.3 107 892.2 106.5L900 106L900 201L892.2 201C884.3 201 868.7 201 852.8 201C837 201 821 201 805.2 201C789.3 201 773.7 201 758 201C742.3 201 726.7 201 710.8 201C695 201 679 201 663.2 201C647.3 201 631.7 201 615.8 201C600 201 584 201 568.2 201C552.3 201 536.7 201 521 201C505.3 201 489.7 201 473.8 201C458 201 442 201 426.2 201C410.3 201 394.7 201 379 201C363.3 201 347.7 201 331.8 201C316 201 300 201 284.2 201C268.3 201 252.7 201 236.8 201C221 201 205 201 189.2 201C173.3 201 157.7 201 142 201C126.3 201 110.7 201 94.8 201C79 201 63 201 47.2 201C31.3 201 15.7 201 7.8 201L0 201Z" fill="#fa69f7"></path><path d="M0 137L7.8 136.8C15.7 136.7 31.3 136.3 47.2 132.7C63 129 79 122 94.8 116.2C110.7 110.3 126.3 105.7 142 97.5C157.7 89.3 173.3 77.7 189.2 76.7C205 75.7 221 85.3 236.8 88.3C252.7 91.3 268.3 87.7 284.2 90.2C300 92.7 316 101.3 331.8 99.2C347.7 97 363.3 84 379 78.3C394.7 72.7 410.3 74.3 426.2 82.2C442 90 458 104 473.8 103.3C489.7 102.7 505.3 87.3 521 83.3C536.7 79.3 552.3 86.7 568.2 91.5C584 96.3 600 98.7 615.8 97.2C631.7 95.7 647.3 90.3 663.2 95C679 99.7 695 114.3 710.8 115C726.7 115.7 742.3 102.3 758 91.7C773.7 81 789.3 73 805.2 77.5C821 82 837 99 852.8 100.7C868.7 102.3 884.3 88.7 892.2 81.8L900 75L900 201L892.2 201C884.3 201 868.7 201 852.8 201C837 201 821 201 805.2 201C789.3 201 773.7 201 758 201C742.3 201 726.7 201 710.8 201C695 201 679 201 663.2 201C647.3 201 631.7 201 615.8 201C600 201 584 201 568.2 201C552.3 201 536.7 201 521 201C505.3 201 489.7 201 473.8 201C458 201 442 201 426.2 201C410.3 201 394.7 201 379 201C363.3 201 347.7 201 331.8 201C316 201 300 201 284.2 201C268.3 201 252.7 201 236.8 201C221 201 205 201 189.2 201C173.3 201 157.7 201 142 201C126.3 201 110.7 201 94.8 201C79 201 63 201 47.2 201C31.3 201 15.7 201 7.8 201L0 201Z" fill="#cc4bd3"></path><path d="M0 129L7.8 134.2C15.7 139.3 31.3 149.7 47.2 153C63 156.3 79 152.7 94.8 151.8C110.7 151 126.3 153 142 152.8C157.7 152.7 173.3 150.3 189.2 141.2C205 132 221 116 236.8 110.7C252.7 105.3 268.3 110.7 284.2 113.3C300 116 316 116 331.8 114.8C347.7 113.7 363.3 111.3 379 111.8C394.7 112.3 410.3 115.7 426.2 120.3C442 125 458 131 473.8 130.7C489.7 130.3 505.3 123.7 521 117.5C536.7 111.3 552.3 105.7 568.2 103.5C584 101.3 600 102.7 615.8 110.2C631.7 117.7 647.3 131.3 663.2 136.7C679 142 695 139 710.8 134C726.7 129 742.3 122 758 119.2C773.7 116.3 789.3 117.7 805.2 124.2C821 130.7 837 142.3 852.8 145.5C868.7 148.7 884.3 143.3 892.2 140.7L900 138L900 201L892.2 201C884.3 201 868.7 201 852.8 201C837 201 821 201 805.2 201C789.3 201 773.7 201 758 201C742.3 201 726.7 201 710.8 201C695 201 679 201 663.2 201C647.3 201 631.7 201 615.8 201C600 201 584 201 568.2 201C552.3 201 536.7 201 521 201C505.3 201 489.7 201 473.8 201C458 201 442 201 426.2 201C410.3 201 394.7 201 379 201C363.3 201 347.7 201 331.8 201C316 201 300 201 284.2 201C268.3 201 252.7 201 236.8 201C221 201 205 201 189.2 201C173.3 201 157.7 201 142 201C126.3 201 110.7 201 94.8 201C79 201 63 201 47.2 201C31.3 201 15.7 201 7.8 201L0 201Z" fill="#a02daf"></path><path d="M0 160L7.8 163.2C15.7 166.3 31.3 172.7 47.2 173C63 173.3 79 167.7 94.8 167.3C110.7 167 126.3 172 142 173.8C157.7 175.7 173.3 174.3 189.2 175.2C205 176 221 179 236.8 176.7C252.7 174.3 268.3 166.7 284.2 160.8C300 155 316 151 331.8 147.3C347.7 143.7 363.3 140.3 379 143C394.7 145.7 410.3 154.3 426.2 158.7C442 163 458 163 473.8 159.3C489.7 155.7 505.3 148.3 521 146.7C536.7 145 552.3 149 568.2 155C584 161 600 169 615.8 167.3C631.7 165.7 647.3 154.3 663.2 149.7C679 145 695 147 710.8 151.8C726.7 156.7 742.3 164.3 758 169C773.7 173.7 789.3 175.3 805.2 170.8C821 166.3 837 155.7 852.8 154.3C868.7 153 884.3 161 892.2 165L900 169L900 201L892.2 201C884.3 201 868.7 201 852.8 201C837 201 821 201 805.2 201C789.3 201 773.7 201 758 201C742.3 201 726.7 201 710.8 201C695 201 679 201 663.2 201C647.3 201 631.7 201 615.8 201C600 201 584 201 568.2 201C552.3 201 536.7 201 521 201C505.3 201 489.7 201 473.8 201C458 201 442 201 426.2 201C410.3 201 394.7 201 379 201C363.3 201 347.7 201 331.8 201C316 201 300 201 284.2 201C268.3 201 252.7 201 236.8 201C221 201 205 201 189.2 201C173.3 201 157.7 201 142 201C126.3 201 110.7 201 94.8 201C79 201 63 201 47.2 201C31.3 201 15.7 201 7.8 201L0 201Z" fill="#76078c"></path></svg>